<svg xmlns="http://www.w3.org/2000/svg" width="1000" height="1000" viewBox="0 0 1000 1000" version="1.1"><path d="M 261 261.500 L 22.501 500.001 261.251 738.750 L 500 977.499 738.749 738.750 L 977.499 500.001 739 261.500 C 607.826 130.325, 500.276 23, 500 23 C 499.724 23, 392.174 130.325, 261 261.500 M 479.497 109.003 L 459.512 129.006 479.756 149.250 L 500 169.494 520.244 149.250 L 540.488 129.006 520.503 109.003 C 509.512 98.001, 500.285 89, 500 89 C 499.715 89, 490.488 98.001, 479.497 109.003 M 405.996 182.504 L 384.510 204.008 442.255 261.753 L 500 319.498 557.745 261.753 L 615.490 204.008 594.004 182.504 C 582.186 170.677, 572.066 161, 571.514 161 C 570.962 161, 554.646 176.860, 535.255 196.245 L 500 231.489 464.745 196.245 C 445.354 176.860, 429.038 161, 428.486 161 C 427.934 161, 417.814 170.677, 405.996 182.504 M 329.748 254.752 L 308.006 276.510 404.003 372.503 L 500 468.496 595.997 372.503 L 691.994 276.510 670.252 254.752 L 648.511 232.994 574.256 307.244 L 500 381.495 425.744 307.244 L 351.489 232.994 329.748 254.752 M 254.998 328.502 L 234.514 349.004 271.757 386.257 L 309 423.510 271.500 461 L 234 498.490 271.500 536 L 309 573.510 271.002 611.498 L 233.004 649.487 254.246 670.747 L 275.489 692.007 371.745 595.755 L 468 499.504 372.252 403.752 C 319.591 351.088, 276.274 308, 275.993 308 C 275.712 308, 266.264 317.226, 254.998 328.502 M 627.748 403.752 L 532 499.504 628.252 595.752 L 724.505 692.001 746.251 670.254 L 767.998 648.508 730.254 610.754 L 692.510 573 729.755 535.745 L 767 498.490 730 461.500 C 709.650 441.156, 693 424.056, 693 423.500 C 693 422.944, 709.424 406.070, 729.498 386.002 L 765.996 349.514 745.257 328.757 C 733.851 317.341, 724.288 308, 724.007 308 C 723.726 308, 680.409 351.088, 627.748 403.752 M 183.741 402.759 L 163 423.518 184 444.500 L 205 465.482 226 444.500 L 247 423.518 226.259 402.759 C 214.851 391.341, 205.285 382, 205 382 C 204.715 382, 195.149 391.341, 183.741 402.759 M 775 402.500 L 754.518 423 775.503 444.003 L 796.488 465.006 817.488 444.006 L 838.488 423.006 818.003 402.503 C 806.736 391.226, 797.060 382, 796.500 382 C 795.940 382, 786.265 391.225, 775 402.500 M 106.500 479 L 85.512 500.006 106.512 521.006 L 127.512 542.006 148.500 521 L 169.488 499.994 148.488 478.994 L 127.488 457.994 106.500 479 M 852.500 479 L 831.512 500.006 852.512 521.006 L 873.512 542.006 894.500 521 L 915.488 499.994 894.488 478.994 L 873.488 457.994 852.500 479 M 183.500 552 L 162.512 573.006 183.512 594.006 L 204.512 615.006 225.500 594 L 246.488 572.994 225.488 551.994 L 204.488 530.994 183.500 552 M 403.003 626.497 L 307.510 721.993 329.500 744 L 351.489 766.006 425.744 691.756 L 500 617.505 574.256 691.756 L 648.511 766.006 670.500 744 L 692.490 721.993 596.997 626.497 C 544.476 573.974, 500.827 531, 500 531 C 499.173 531, 455.524 573.974, 403.003 626.497 M 775.500 552 L 754.512 573.006 775.512 594.006 L 796.512 615.006 817.500 594 L 838.488 572.994 817.488 551.994 L 796.488 530.994 775.500 552 M 442.247 737.253 L 385 794.506 406.746 816.252 L 428.492 837.998 464.246 802.254 L 500 766.510 535.757 802.257 L 571.514 838.003 593.254 816.246 L 614.995 794.488 557.744 737.244 C 526.256 705.760, 500.269 680, 499.994 680 C 499.718 680, 473.733 705.764, 442.247 737.253 M 479.741 849.759 L 460 869.519 480 889.500 L 500 909.481 520 889.500 L 540 869.519 520.259 849.759 C 509.402 838.892, 500.285 830, 500 830 C 499.715 830, 490.598 838.892, 479.741 849.759" stroke="none" fill="#fbfbfb" fill-rule="evenodd"/><path d="M 0 500.001 L 0 1000.002 500.250 999.751 L 1000.500 999.500 1000.751 499.750 L 1001.002 0 500.501 0 L 0 0 0 500.001 M 0.496 500.500 C 0.496 775.500, 0.610 887.851, 0.750 750.168 C 0.890 612.486, 0.890 387.486, 0.750 250.168 C 0.610 112.851, 0.496 225.500, 0.496 500.500 M 261 261.500 L 22.501 500.001 261.251 738.750 L 500 977.499 738.749 738.750 L 977.499 500.001 739 261.500 C 607.826 130.325, 500.276 23, 500 23 C 499.724 23, 392.174 130.325, 261 261.500 M 479.497 109.003 L 459.512 129.006 479.756 149.250 L 500 169.494 520.244 149.250 L 540.488 129.006 520.503 109.003 C 509.512 98.001, 500.285 89, 500 89 C 499.715 89, 490.488 98.001, 479.497 109.003 M 405.996 182.504 L 384.510 204.008 442.255 261.753 L 500 319.498 557.745 261.753 L 615.490 204.008 594.004 182.504 C 582.186 170.677, 572.066 161, 571.514 161 C 570.962 161, 554.646 176.860, 535.255 196.245 L 500 231.489 464.745 196.245 C 445.354 176.860, 429.038 161, 428.486 161 C 427.934 161, 417.814 170.677, 405.996 182.504 M 329.748 254.752 L 308.006 276.510 404.003 372.503 L 500 468.496 595.997 372.503 L 691.994 276.510 670.252 254.752 L 648.511 232.994 574.256 307.244 L 500 381.495 425.744 307.244 L 351.489 232.994 329.748 254.752 M 254.998 328.502 L 234.514 349.004 271.757 386.257 L 309 423.510 271.500 461 L 234 498.490 271.500 536 L 309 573.510 271.002 611.498 L 233.004 649.487 254.246 670.747 L 275.489 692.007 371.745 595.755 L 468 499.504 372.252 403.752 C 319.591 351.088, 276.274 308, 275.993 308 C 275.712 308, 266.264 317.226, 254.998 328.502 M 627.748 403.752 L 532 499.504 628.252 595.752 L 724.505 692.001 746.251 670.254 L 767.998 648.508 730.254 610.754 L 692.510 573 729.755 535.745 L 767 498.490 730 461.500 C 709.650 441.156, 693 424.056, 693 423.500 C 693 422.944, 709.424 406.070, 729.498 386.002 L 765.996 349.514 745.257 328.757 C 733.851 317.341, 724.288 308, 724.007 308 C 723.726 308, 680.409 351.088, 627.748 403.752 M 183.741 402.759 L 163 423.518 184 444.500 L 205 465.482 226 444.500 L 247 423.518 226.259 402.759 C 214.851 391.341, 205.285 382, 205 382 C 204.715 382, 195.149 391.341, 183.741 402.759 M 775 402.500 L 754.518 423 775.503 444.003 L 796.488 465.006 817.488 444.006 L 838.488 423.006 818.003 402.503 C 806.736 391.226, 797.060 382, 796.500 382 C 795.940 382, 786.265 391.225, 775 402.500 M 106.500 479 L 85.512 500.006 106.512 521.006 L 127.512 542.006 148.500 521 L 169.488 499.994 148.488 478.994 L 127.488 457.994 106.500 479 M 852.500 479 L 831.512 500.006 852.512 521.006 L 873.512 542.006 894.500 521 L 915.488 499.994 894.488 478.994 L 873.488 457.994 852.500 479 M 183.500 552 L 162.512 573.006 183.512 594.006 L 204.512 615.006 225.500 594 L 246.488 572.994 225.488 551.994 L 204.488 530.994 183.500 552 M 403.003 626.497 L 307.510 721.993 329.500 744 L 351.489 766.006 425.744 691.756 L 500 617.505 574.256 691.756 L 648.511 766.006 670.500 744 L 692.490 721.993 596.997 626.497 C 544.476 573.974, 500.827 531, 500 531 C 499.173 531, 455.524 573.974, 403.003 626.497 M 775.500 552 L 754.512 573.006 775.512 594.006 L 796.512 615.006 817.500 594 L 838.488 572.994 817.488 551.994 L 796.488 530.994 775.500 552 M 442.247 737.253 L 385 794.506 406.746 816.252 L 428.492 837.998 464.246 802.254 L 500 766.510 535.757 802.257 L 571.514 838.003 593.254 816.246 L 614.995 794.488 557.744 737.244 C 526.256 705.760, 500.269 680, 499.994 680 C 499.718 680, 473.733 705.764, 442.247 737.253 M 479.741 849.759 L 460 869.519 480 889.500 L 500 909.481 520 889.500 L 540 869.519 520.259 849.759 C 509.402 838.892, 500.285 830, 500 830 C 499.715 830, 490.598 838.892, 479.741 849.759" stroke="none" fill="#2c2c2c" fill-rule="evenodd"/></svg>